<svg width="120" height="120" viewBox="0 0 120 120" fill="none" xmlns="http://www.w3.org/2000/svg">
<rect width="120" height="120" fill="white"/>
<circle cx="60.0001" cy="59.9996" r="38.4" fill="url(#paint0_linear_1426_18118)"/>
<path d="M72 96L60.5 80.5C61.1667 81.1667 64 81 65.5 80.5C66 80 67.2 80.4 68 78C68.8 75.6 72 60.8333 75 51L75.5 48L98.1701 63.4491C95 82.5 87 90.5 72 96Z" fill="#86EB97" fill-opacity="0.17"/>
<circle cx="84.6002" cy="85.1998" r="14.4" fill="#2AA03E" fill-opacity="0.47"/>
<path d="M91.8001 81L82.7251 90L78.6001 85.9091" stroke="#F8F8F8" stroke-width="2.95663" stroke-linecap="round" stroke-linejoin="round"/>
<path d="M75.7717 49.6213C75.7717 49.6213 75.7717 49.6384 75.7717 49.647L65.7686 82.6367C65.6172 83.1725 65.3055 83.6492 64.8754 84.0029C64.4453 84.3565 63.9173 84.5701 63.3624 84.615C63.2833 84.6219 63.2042 84.6253 63.1252 84.6253C62.6051 84.6269 62.0954 84.4797 61.6562 84.2011C61.217 83.9224 60.8668 83.5239 60.6467 83.0527L54.3905 70.2136C54.3279 70.0849 54.307 69.9399 54.3307 69.7988C54.3544 69.6577 54.4216 69.5275 54.5228 69.4264L64.4778 59.4714C64.7248 59.2114 64.8605 58.8653 64.8559 58.5067C64.8513 58.1482 64.7068 57.8056 64.4533 57.5521C64.1997 57.2985 63.8571 57.1541 63.4986 57.1495C63.14 57.1449 62.7939 57.2805 62.5339 57.5275L52.5738 67.4825C52.4726 67.5837 52.3425 67.6509 52.2013 67.6746C52.0602 67.6983 51.9152 67.6774 51.7866 67.6148L38.9355 61.3603C38.433 61.1192 38.0155 60.7311 37.7386 60.2474C37.4616 59.7638 37.3381 59.2073 37.3846 58.6519C37.431 58.0965 37.6451 57.5683 37.9985 57.1372C38.3519 56.7062 38.8279 56.3928 39.3635 56.2384L72.3531 46.2353H72.3789C72.8486 46.1034 73.345 46.0987 73.8171 46.2219C74.2891 46.3451 74.72 46.5917 75.0653 46.9363C75.4106 47.2809 75.6581 47.7112 75.7822 48.1831C75.9064 48.6549 75.9027 49.1513 75.7717 49.6213Z" fill="#F8F8F8"/>
<defs>
<linearGradient id="paint0_linear_1426_18118" x1="-33.2107" y1="-20.9354" x2="-55.9444" y2="71.8689" gradientUnits="userSpaceOnUse">
<stop offset="0.264423" stop-color="#00470C"/>
<stop offset="1" stop-color="#56FF80" stop-opacity="0.1"/>
</linearGradient>
</defs>
</svg>
